<svg xmlns="http://www.w3.org/2000/svg" width="81.784" height="77.749" viewBox="0 0 81.784 77.749"><defs><style>.a{fill:#2a91ff;}</style></defs><path class="a" d="M81.636,140.868a6.963,6.963,0,0,0-8.371-5.37l-8.525,1.952v-3.485a33.673,33.673,0,0,0,4.756-5.635,33.035,33.035,0,0,0,4.67-11,33.7,33.7,0,0,0,.064-14.3,1.6,1.6,0,0,0-3.124.669,30.463,30.463,0,0,1-.058,12.937,29.853,29.853,0,0,1-4.22,9.937,28.435,28.435,0,0,1-2.088,2.755V111.621a1.6,1.6,0,0,0-1.6-1.6H50.507V92.966a1.6,1.6,0,0,0-1.592-1.6L34.682,91.32h0a1.6,1.6,0,0,0-1.6,1.6v8.873H20.442a1.6,1.6,0,0,0-1.6,1.6v15.818H15.286v-2.17a1.6,1.6,0,0,0-1.6-1.6H12.05a30.232,30.232,0,0,1,1.3-15.666c.3-.821.636-1.64,1-2.432a1.6,1.6,0,1,0-2.9-1.348c-.409.877-.783,1.783-1.112,2.692A33.379,33.379,0,0,0,8.809,115.44H1.6a1.6,1.6,0,0,0-1.6,1.6v28.077a1.6,1.6,0,0,0,1.6,1.6H13.688a1.6,1.6,0,0,0,1.6-1.6V143.6h6.009l24.34,9.547a19.225,19.225,0,0,0,11.822.739l19.078-4.849A6.95,6.95,0,0,0,81.636,140.868Zm-20.09-27.65V138.18l-4.27.978c-.459.1-.923.188-1.39.253a16.215,16.215,0,0,1-5.356-.155l-.022,0v-2.422a7.4,7.4,0,0,0,.983-6.223,7.173,7.173,0,0,0-.752-1.675q-.11-.178-.228-.348l0,0V113.218H61.546Zm-25.272-18.7,11.038.037V126.04l-6.169-2.553-4.869-2.016ZM22.04,104.986H33.078v15.162l-1.981-.82a1.6,1.6,0,0,0-.611-.122H22.04Zm-9.948,38.531h-8.9V118.634h8.9Zm63.656,2.42-19.078,4.849a16.054,16.054,0,0,1-9.869-.617L22.18,140.512a1.6,1.6,0,0,0-.583-.11H15.286v-18H30.168L40.5,126.679l5.656,2.341A4,4,0,0,1,48.3,134.2a4.567,4.567,0,0,1-.64,1.123,4.117,4.117,0,0,1-4.187,1.444l-.037-.009c-.092-.023-.184-.05-.275-.08L32.41,132.542l-.134-.051a1.6,1.6,0,1,0-1.146,2.982s6.06,2.33,10.681,4.112c.093.036.185.07.278.1l3.548,1.365a29.331,29.331,0,0,0,3.256,1.108,19.38,19.38,0,0,0,9.095.114l5.51-1.261.017,0,10.461-2.395a3.768,3.768,0,0,1,1.769,7.325Zm0,0" transform="translate(0 -76.733)"/><path class="a" d="M119.474,11.361a1.591,1.591,0,0,0,1.07-.412,30.016,30.016,0,0,1,22.179-7.69,29.96,29.96,0,0,1,8.709,1.9,1.6,1.6,0,0,0,1.137-2.985,33.147,33.147,0,0,0-9.636-2.1A33.213,33.213,0,0,0,118.4,8.578a1.6,1.6,0,0,0,1.071,2.783Zm0,0" transform="translate(-99.048 0)"/><path class="a" d="M352,48.171a1.6,1.6,0,0,0,2.254-.158l13.142-15.128a1.6,1.6,0,0,0-2.411-2.1L351.837,45.917A1.6,1.6,0,0,0,352,48.171Zm0,0" transform="translate(-295.308 -25.41)"/><path class="a" d="M407.522,99.738a4.01,4.01,0,1,0,4.01,4.01A4.015,4.015,0,0,0,407.522,99.738Zm0,4.826a.816.816,0,1,1,.815-.816A.816.816,0,0,1,407.522,104.564Zm0,0" transform="translate(-339.057 -83.807)"/><path class="a" d="M351.991,35.286a4.01,4.01,0,1,0-4.01-4.01A4.015,4.015,0,0,0,351.991,35.286Zm0-4.826a.816.816,0,1,1-.815.816A.817.817,0,0,1,351.991,30.46Zm0,0" transform="translate(-292.396 -22.91)"/><path class="a" d="M91.7,83.03a1.6,1.6,0,1,0,.588-1.939A1.61,1.61,0,0,0,91.7,83.03Zm0,0" transform="translate(-76.952 -67.915)"/></svg>