<svg xmlns="http://www.w3.org/2000/svg" width="90.801" height="90.801" viewBox="0 0 90.801 90.801"><defs><style>.a{fill:#2a91ff;}</style></defs><g transform="translate(-2 -2)"><path class="a" d="M33.54,30.54a1.515,1.515,0,0,1,1.513,1.513H38.08a4.534,4.534,0,0,0-3.027-4.262V26H32.027v1.792a4.529,4.529,0,0,0,1.513,8.8,1.513,1.513,0,1,1-1.513,1.513H29a4.534,4.534,0,0,0,3.027,4.262V44.16h3.027V42.368a4.529,4.529,0,0,0-1.513-8.8,1.513,1.513,0,1,1,0-3.027Z" transform="translate(13.86 12.32)"/><path class="a" d="M84.418,14.335a8.624,8.624,0,0,0-14.58-1.364A8.617,8.617,0,0,0,58.728,14.5,34.434,34.434,0,0,0,43.8,12.8,9.172,9.172,0,0,0,35.99,6.77,8.622,8.622,0,0,0,21.412,5.405,8.639,8.639,0,0,0,8.1,12.672v.861H7.583a5.583,5.583,0,0,0,0,11.167H21.018a34.42,34.42,0,0,0-8.425,22.7,34.854,34.854,0,0,0,30.93,34.586A5.571,5.571,0,0,0,45.416,92.8H73.445a8.569,8.569,0,0,0,8.762-8.762,9.236,9.236,0,0,0-8.382-9.169,8.655,8.655,0,0,0-2.055-2.63,34.75,34.75,0,0,0,6.964-39.972H84.04A8.568,8.568,0,0,0,92.8,23.5a9.237,9.237,0,0,0-8.382-9.169ZM51.076,29.24H48.914V15.653a31.239,31.239,0,0,1,8.2,1.494,8.571,8.571,0,0,0-.583,3.092V21.1H56.01a5.59,5.59,0,0,0-5.583,5.584A5.512,5.512,0,0,0,51.076,29.24ZM5.027,19.117A2.56,2.56,0,0,1,7.583,16.56H9.618a1.513,1.513,0,0,0,1.513-1.513V12.672a5.616,5.616,0,0,1,5.61-5.61A5.559,5.559,0,0,1,20.729,8.73a1.514,1.514,0,0,0,2.452-.43,5.6,5.6,0,0,1,10.377.468,1.514,1.514,0,0,0,1.426,1.008H35.4a6.14,6.14,0,0,1,5.95,6.162,5.609,5.609,0,0,1-5.734,5.736H7.583a2.56,2.56,0,0,1-2.556-2.556ZM35.613,24.7a8.568,8.568,0,0,0,8.761-8.762c0-.053-.006-.1-.008-.156.508-.05,1.015-.085,1.521-.109V29.24H33.8c.118-.316.225-.642.35-.95l-2.81-1.124c-.271.676-.524,1.371-.764,2.076H21.315a32.3,32.3,0,0,1,3.892-4.54H35.613ZM60.931,48.914h3.084A54.107,54.107,0,0,1,62,62.534H48.914v-1.6A13.639,13.639,0,0,0,60.931,48.914Zm18.209,0a31.752,31.752,0,0,1-3.814,13.62H65.143a57.7,57.7,0,0,0,1.9-13.62ZM45.887,79.029c-4.908-.891-9.269-6.058-12.036-13.469H45.887Zm-13.048-16.5A54,54,0,0,1,30.8,48.914h3.075A13.639,13.639,0,0,0,45.889,60.931v1.6ZM15.7,48.914H27.748a58.426,58.426,0,0,0,1.869,13.62H19.461A31.564,31.564,0,0,1,15.7,48.914Zm0-3.027a31.408,31.408,0,0,1,3.758-13.62h10.2a57.7,57.7,0,0,0-1.9,13.62ZM47.4,57.994A10.593,10.593,0,1,1,57.994,47.4,10.606,10.606,0,0,1,47.4,57.994ZM45.887,33.87A13.639,13.639,0,0,0,33.87,45.887H30.785A54.108,54.108,0,0,1,32.8,32.267H45.887ZM21.357,65.561H30.53a31.6,31.6,0,0,0,6.918,12A31.9,31.9,0,0,1,21.357,65.561ZM72.819,77.876h.413a6.14,6.14,0,0,1,5.949,6.162,5.609,5.609,0,0,1-5.734,5.736H45.416a2.557,2.557,0,0,1,0-5.114h2.035a1.513,1.513,0,0,0,1.513-1.513V80.773a5.616,5.616,0,0,1,5.61-5.61,5.559,5.559,0,0,1,3.988,1.668,1.514,1.514,0,0,0,2.452-.43,5.6,5.6,0,0,1,10.377.468A1.515,1.515,0,0,0,72.819,77.876ZM66.108,70.1a8.662,8.662,0,0,0-6.863,3.405,8.613,8.613,0,0,0-10.332.761V65.561H61c-.118.316-.225.642-.35.95l2.81,1.124c.271-.676.524-1.371.764-2.076h9.234a31.882,31.882,0,0,1-4.408,5.08A8.582,8.582,0,0,0,66.108,70.1ZM79.131,45.887H67.036A59.274,59.274,0,0,0,65.8,34.979l-2.962.631a56.048,56.048,0,0,1,1.168,10.279H60.931A13.639,13.639,0,0,0,48.914,33.871v-1.6H75.325A31.759,31.759,0,0,1,79.131,45.887ZM84.04,29.24H56.01a2.557,2.557,0,0,1,0-5.114h2.035a1.513,1.513,0,0,0,1.513-1.513V20.239a5.616,5.616,0,0,1,5.61-5.61A5.559,5.559,0,0,1,69.156,16.3a1.514,1.514,0,0,0,2.452-.43,5.6,5.6,0,0,1,10.377.468,1.514,1.514,0,0,0,1.426,1.008h.413a6.14,6.14,0,0,1,5.95,6.162A5.609,5.609,0,0,1,84.04,29.24Z" transform="translate(0 0)"/><path class="a" d="M55,13v3.027a1.6,1.6,0,0,1,1.594,1.594H59.62A4.625,4.625,0,0,0,55,13Z" transform="translate(27.207 5.647)"/><path class="a" d="M48,56.185a1.6,1.6,0,0,1,1.594,1.594H52.62A4.625,4.625,0,0,0,48,53.158Z" transform="translate(23.614 26.262)"/><path class="a" d="M6.172,40.088l-2.9.872c.3,1,.64,2,1.006,2.963L7.107,42.85C6.766,41.951,6.452,41.022,6.172,40.088Z" transform="translate(0.653 19.552)"/><path class="a" d="M2.039,31.506l3.024.154c.048-.976.133-1.955.248-2.912l-3.006-.362C2.183,29.41,2.092,30.46,2.039,31.506Z" transform="translate(0.02 13.546)"/><path class="a" d="M7.485,43.694,4.734,44.956c.43.937.9,1.878,1.407,2.8L8.8,46.3C8.325,45.443,7.883,44.567,7.485,43.694Z" transform="translate(1.403 21.403)"/><path class="a" d="M15.344,57.809c.867.58,1.763,1.135,2.66,1.65l1.5-2.626c-.837-.48-1.671-1-2.483-1.541Z" transform="translate(6.85 27.357)"/><path class="a" d="M7.489,21.578,4.7,20.408c-.4.961-.775,1.946-1.108,2.928l2.868.973c.31-.917.657-1.836,1.034-2.732Z" transform="translate(0.815 9.45)"/><path class="a" d="M9.268,47.076l-2.552,1.63c.557.87,1.155,1.736,1.777,2.577l2.432-1.8C10.343,48.7,9.787,47.887,9.268,47.076Z" transform="translate(2.421 23.14)"/><path class="a" d="M22.771,61.53c.988.319,2,.607,3.009.858l.729-2.937c-.941-.233-1.886-.5-2.807-.8Z" transform="translate(10.663 29.081)"/><path class="a" d="M18.931,59.935c.929.451,1.893.878,2.865,1.267l1.129-2.807c-.906-.365-1.8-.761-2.673-1.183Z" transform="translate(8.691 28.342)"/><path class="a" d="M5.031,32.482,2,32.53c.017,1.04.071,2.091.159,3.125L5.177,35.4C5.1,34.433,5.046,33.452,5.031,32.482Z" transform="translate(0.002 15.648)"/><path class="a" d="M2.533,27.377l2.974.569c.183-.959.4-1.919.646-2.85l-2.927-.77C2.963,25.323,2.73,26.351,2.533,27.377Z" transform="translate(0.274 11.461)"/><path class="a" d="M5.347,36.325l-2.992.468c.162,1.034.359,2.066.587,3.072L5.895,39.2C5.683,38.256,5.5,37.291,5.347,36.325Z" transform="translate(0.182 17.621)"/><path class="a" d="M12.073,55.193c.773.687,1.583,1.359,2.408,2L16.335,54.8c-.772-.6-1.528-1.226-2.25-1.866Z" transform="translate(5.171 26.145)"/><path class="a" d="M9.179,52.141c.672.788,1.383,1.565,2.113,2.308l2.161-2.119c-.681-.695-1.345-1.42-1.972-2.155Z" transform="translate(3.685 24.73)"/><path class="a" d="M54.837,49.031,57.3,50.788c.6-.837,1.176-1.716,1.727-2.614l-2.58-1.581C55.936,47.431,55.392,48.252,54.837,49.031Z" transform="translate(27.124 22.892)"/><path class="a" d="M60.03,32.053c0,.931-.03,1.857-.089,2.772l3.021.194q.1-1.471.1-2.966V31.9H60.03Z" transform="translate(29.744 15.347)"/><path class="a" d="M56.853,45.807l2.683,1.4c.477-.916.931-1.867,1.35-2.827l-2.775-1.208C57.722,44.066,57.3,44.953,56.853,45.807Z" transform="translate(28.159 21.135)"/><path class="a" d="M58.393,42.32l2.853,1.014c.347-.975.664-1.979.944-2.986l-2.915-.813C59.013,40.473,58.715,41.41,58.393,42.32Z" transform="translate(28.949 19.268)"/><path class="a" d="M58.922,24.557c.265.928.5,1.881.707,2.836l2.959-.631c-.218-1.022-.472-2.045-.757-3.036Z" transform="translate(29.221 11.153)"/><path class="a" d="M63.05,30.882c-.074-1.044-.185-2.091-.33-3.113l-3,.424c.135.952.238,1.93.309,2.9Z" transform="translate(29.632 13.228)"/><path class="a" d="M59.429,38.634l2.965.61c.209-1.011.384-2.051.524-3.09l-3-.4C59.786,36.723,59.623,37.692,59.429,38.634Z" transform="translate(29.481 17.327)"/><path class="a" d="M22.947,8.947v3.027a1.6,1.6,0,0,1,1.594,1.594h3.027a4.625,4.625,0,0,0-4.62-4.62Z" transform="translate(10.753 3.566)"/></g></svg>