<svg xmlns="http://www.w3.org/2000/svg" width="124.085" height="81.785" viewBox="0 0 124.085 81.785"><defs><style>.a{fill:#2a91ff;}</style></defs><g transform="translate(0)"><g transform="translate(0 0)"><path class="a" d="M124.085,108.379a8.719,8.719,0,0,0-1.782-5.369l-9.832-12.58a8.455,8.455,0,0,0-6.657-3.16,8.2,8.2,0,0,0-4.348,1.218L91.88,94.452a8.747,8.747,0,0,1-4.406,1.073,7.987,7.987,0,0,1-3.378-.663l-9.388-4.547a11.308,11.308,0,0,0-4.9-1.031,12.206,12.206,0,0,0-6.891,1.985l-1.1.769-3.729-1.857a14.064,14.064,0,0,0-6.114-1.258,14.629,14.629,0,0,0-5.612,1.029l-6.394,2.728a11.691,11.691,0,0,1-4.34.739,11.684,11.684,0,0,1-4.337-.739l-6.4-2.73a9.315,9.315,0,0,0-3.652-.712,11.122,11.122,0,0,0-4.155.815,9.448,9.448,0,0,0-3.505,2.412L1.93,105.517a7.566,7.566,0,0,0,.739,10.816l10.87,9.273-5.156,5.379a7.682,7.682,0,0,0,.264,10.879l1.046.994a7.671,7.671,0,0,0,3.409,1.847,7.6,7.6,0,0,0,1.431,9.226h0l1.049,1a7.781,7.781,0,0,0,8.353,1.512,7.6,7.6,0,0,0,2.138,3.722l1.049,1a7.765,7.765,0,0,0,9.622.826,7.629,7.629,0,0,0,2.011,3.3l1.049,1a7.775,7.775,0,0,0,10.933-.259l4.557-4.759L61.481,167a7.77,7.77,0,0,0,10.925-.393l.988-1.059a7.625,7.625,0,0,0,1.733-3.133l2.4,2.214a7.782,7.782,0,0,0,10.932-.4l.983-1.058a7.6,7.6,0,0,0,1.971-4.248A7.569,7.569,0,0,0,99,156.742l.986-1.058a7.66,7.66,0,0,0,2.06-5.237,7.856,7.856,0,0,0-.212-1.726,7.663,7.663,0,0,0,4.637-2.348l.988-1.059a7.692,7.692,0,0,0-.4-10.88l-1.848-1.707,16.683-18.446A8.783,8.783,0,0,0,124.085,108.379Zm-109.056,32.4a3.508,3.508,0,0,1-2.424-.959l-1.048-.994a3.5,3.5,0,0,1-.121-4.945L22,122.862a3.544,3.544,0,0,1,4.972-.118l1.043,1a6.618,6.618,0,0,1,1.083,2.535,3.48,3.48,0,0,1-.625,1.978c-.035.035-11.4,11.878-11.4,11.878A3.556,3.556,0,0,1,15.029,140.781Zm8.434,10.992a3.546,3.546,0,0,1-4.969.117l-1.049-1h0a3.508,3.508,0,0,1-.119-4.945s14.077-14.654,14.2-14.8a3.525,3.525,0,0,1,4.859-.024l1.049,1a3.5,3.5,0,0,1,.118,4.946ZM35,158a3.54,3.54,0,0,1-4.967.118l-1.052-1a3.476,3.476,0,0,1-.306-4.711l9.8-10.232a3.514,3.514,0,0,1,4.773.048l1.052,1a3.5,3.5,0,0,1,.118,4.945Zm18.628-1.08-5.949,6.209a3.542,3.542,0,0,1-4.969.117l-1.049-1a3.5,3.5,0,0,1-.118-4.945l5.946-6.208a3.546,3.546,0,0,1,4.972-.117l1.052,1a3.5,3.5,0,0,1,.115,4.945Zm51.679-16.841a3.464,3.464,0,0,1-.936,2.378l-.986,1.058a3.544,3.544,0,0,1-4.967.181L81.81,128.338l-2.872,3.075,17.779,16.47a3.5,3.5,0,0,1,.182,4.946l-.983,1.058a3.542,3.542,0,0,1-4.965.182l-16.614-15.36-2.869,3.075,14.744,13.635a3.494,3.494,0,0,1,.144,4.9l-.986,1.058a3.547,3.547,0,0,1-4.97.183L65.685,147.97h0l0,0-2.864,3.081,0,0,.055.052,7.37,6.8a3.463,3.463,0,0,1,.063,4.79l-.986,1.059a3.535,3.535,0,0,1-4.959.179l-6.417-5.942a7.575,7.575,0,0,0-1.52-9.048l-1.052-1a7.73,7.73,0,0,0-5.331-2.118c-.148,0-.3.034-.443.042,0-.035.008-.072.008-.107,0-2.023-2.39-5.574-2.39-5.574l-1.049-1a7.7,7.7,0,0,0-3.891-1.982,7.583,7.583,0,0,0-1.933-8.119l-1.049-1a7.745,7.745,0,0,0-5.334-2.121c-.223,0-.443.045-.664.065a7.66,7.66,0,0,0-2.366-5.331h0l-1.046-.994a7.772,7.772,0,0,0-10.933.257l-2.493,2.6L5.417,113.151a3.385,3.385,0,0,1-.329-4.839L16.74,95.263a5.317,5.317,0,0,1,1.947-1.314,6.934,6.934,0,0,1,2.56-.5,5.11,5.11,0,0,1,1.991.374l6.4,2.73a15.74,15.74,0,0,0,6,1.078,15.741,15.741,0,0,0,6-1.078l6.394-2.728a10.474,10.474,0,0,1,3.952-.691,10.037,10.037,0,0,1,4.224.814c.6.3,1.176.585,1.707.852L51.4,99.378a7.532,7.532,0,0,0-1.719,10.692l0,0,.861,1.157a8.418,8.418,0,0,0,6.736,3.3,8.179,8.179,0,0,0,4.213-1.148l3.9-2.342a6.423,6.423,0,0,1,3.239-.788,6.745,6.745,0,0,1,3.814,1.073l10.789,7.735a107.759,107.759,0,0,1,8.48,6.919l12.488,11.546A3.479,3.479,0,0,1,105.309,140.082Zm13.454-28.607-16.637,18.4-7.553-6.982a111.142,111.142,0,0,0-8.884-7.249L74.9,107.905a10.9,10.9,0,0,0-6.282-1.864,10.62,10.62,0,0,0-5.42,1.392l-3.9,2.342a3.957,3.957,0,0,1-2.035.544,4.206,4.206,0,0,1-3.349-1.6l-.859-1.156,0,0a3.341,3.341,0,0,1,.766-4.757l11.531-8.1a8.116,8.116,0,0,1,4.456-1.215,7.143,7.143,0,0,1,3.054.608l9.388,4.547a12.127,12.127,0,0,0,5.224,1.087,12.843,12.843,0,0,0,6.64-1.713l9.589-5.966a3.985,3.985,0,0,1,2.112-.579,4.254,4.254,0,0,1,3.326,1.541l9.832,12.58a4.577,4.577,0,0,1,.9,2.79A4.664,4.664,0,0,1,118.763,111.475Z" transform="translate(0 -87.27)"/></g></g></svg>