<svg xmlns="http://www.w3.org/2000/svg" width="90.432" height="74.002" viewBox="0 0 90.432 74.002"><defs><style>.a{fill:#2a91ff;}</style></defs><g transform="translate(0 -43.604)"><g transform="translate(0 49.649)"><path class="a" d="M87.417,140.634V96.925a1.507,1.507,0,0,0-1.507-1.507H84.4V80.86L72.345,75.692,60.288,80.86V95.418H58.781a1.507,1.507,0,0,0-1.507,1.507V110.49H55.766V95.932L43.709,90.764,31.651,95.932V110.49A1.507,1.507,0,0,0,30.144,112v13.565H28.637V110.49H4.522v15.072a1.507,1.507,0,0,0-1.507,1.507v13.565H0v3.014H90.432v-3.014ZM7.536,113.5H25.622v12.058H21.1v-7.536H12.058v7.536H7.536Zm10.55,7.536v4.522H15.072V121.04Zm12.058,19.594H6.029v-4.522H30.144Zm0-7.536H6.029v-4.522H30.144Zm4.522-35.179,9.043-3.875,9.043,3.875V110.49H48.23v-7.536H39.187v7.536H34.665Zm10.55,8.05v4.522H42.2v-4.522Zm12.058,34.665H33.158v-4.522H57.273Zm0-7.536H33.158v-4.522H57.273Zm0-7.536H33.158V121.04H57.273Zm0-7.536H33.158V113.5H57.273ZM63.3,82.847l9.043-3.875,9.043,3.875V95.418H76.867V87.882H67.824v7.536H63.3Zm10.55,8.05v4.522H70.838V90.9ZM84.4,140.634H60.288v-4.522H84.4Zm0-7.536H60.288v-4.522H84.4Zm0-7.536H60.288V121.04H84.4Zm0-7.536H60.288V113.5H84.4Zm0-7.536H60.288v-4.522H84.4Zm0-7.536H60.288V98.433H84.4Z" transform="translate(0 -75.692)"/></g><g transform="translate(55.142 43.604)"><g transform="translate(0 0)"><path class="a" d="M309.891,43.6l-17.2,7.821,1.248,2.743,15.955-7.251,15.955,7.251,1.248-2.743Z" transform="translate(-292.688 -43.604)"/></g></g></g></svg>