<svg xmlns="http://www.w3.org/2000/svg" width="96.069" height="67.314" viewBox="0 0 96.069 67.314"><defs><style>.a{fill:#2a91ff;}</style></defs><g transform="translate(-2 -11.012)"><path class="a" d="M96.833,54.734A67.307,67.307,0,0,0,81.895,53.41c2.882-7.293,3.476-16.087,1.739-26.212a1.6,1.6,0,0,0-1.961-1.281A56.554,56.554,0,0,0,66.383,32.8,50.016,50.016,0,0,0,51.14,11.346a1.6,1.6,0,0,0-2.12.144c-7.1,7.223-11.848,14.644-14.173,22.1A56.738,56.738,0,0,0,18.4,25.913a1.6,1.6,0,0,0-1.961,1.281C14.7,37.32,15.3,46.112,18.173,53.406A67.306,67.306,0,0,0,3.234,54.731a1.6,1.6,0,0,0-1.121,2.152C9.072,74.306,22.635,78.32,33.656,78.32A52.765,52.765,0,0,0,50.034,75.6a52.754,52.754,0,0,0,16.38,2.722c11.019,0,24.584-4.016,31.542-21.437a1.606,1.606,0,0,0-1.122-2.155ZM78.345,53.583a42.169,42.169,0,0,0-16.8,4.643,1.572,1.572,0,0,0-.74.416h0a27.607,27.607,0,0,0-8.308,7.38,38.222,38.222,0,0,0-.815-8.806c1.921-8.129,6.861-15.051,14.73-20.587a55.67,55.67,0,0,1,14.357-7.1C82.135,38.942,81.309,47.018,78.345,53.583Zm-28.073-38.8c2.82,2.5,10.313,9.874,13.361,19.929a38.723,38.723,0,0,0-13.6,17.108A38.16,38.16,0,0,0,37.587,35.586C39.522,28.639,43.767,21.651,50.272,14.784ZM19.307,29.514A55.141,55.141,0,0,1,34.793,37.44h0a34.306,34.306,0,0,1,13.6,19.766,38.141,38.141,0,0,0-.817,8.806C41.087,57.3,30.777,54.3,21.721,53.575c-2.962-6.557-3.788-14.634-2.414-24.055ZM31.451,75.127c-11.988-.65-20.59-6.584-25.6-17.638,7.258-1.236,33.433-4.176,42.065,15.448a48.435,48.435,0,0,1-16.464,2.2Zm37.165,0a48.53,48.53,0,0,1-16.464-2.2c8.63-19.617,34.8-16.677,42.073-15.443C89.207,68.543,80.6,74.477,68.617,75.132Z" transform="translate(0)"/><rect class="a" width="3.202" height="3.202" transform="translate(48.433 22.668)"/><rect class="a" width="3.202" height="3.202" transform="translate(48.433 29.072)"/><rect class="a" width="3.202" height="3.202" transform="translate(48.433 35.477)"/><path class="a" d="M14,26.293a24.4,24.4,0,0,0,3.471,12.1l2.664-1.777A21.455,21.455,0,0,1,17.2,26.291Z" transform="translate(7.214 9.184)"/><path class="a" d="M52.3,26.292H49.1a21.311,21.311,0,0,1-2.933,10.319l2.664,1.777a24.4,24.4,0,0,0,3.471-12.1Z" transform="translate(26.551 9.185)"/></g></svg>