<svg xmlns="http://www.w3.org/2000/svg" width="72.673" height="71.822" viewBox="0 0 72.673 71.822"><defs><style>.a{fill:#2a91ff;}</style></defs><g transform="translate(0 -3)"><g transform="translate(42.575 38.939)"><path class="a" d="M305.915,266.443a2.731,2.731,0,1,1,3.123-2.7,1.419,1.419,0,0,0,2.839,0,5.648,5.648,0,0,0-4.542-5.382v-.738a1.419,1.419,0,1,0-2.839,0v.738a5.648,5.648,0,0,0-4.542,5.382,5.77,5.77,0,0,0,5.961,5.541,2.731,2.731,0,1,1-3.123,2.7,1.419,1.419,0,1,0-2.839,0,5.648,5.648,0,0,0,4.542,5.382v.613a1.419,1.419,0,1,0,2.839,0v-.613a5.648,5.648,0,0,0,4.542-5.382A5.77,5.77,0,0,0,305.915,266.443Z" transform="translate(-299.954 -256.201)"/></g><g transform="translate(54.494 33.912)"><path class="a" d="M393.513,227.611a18.494,18.494,0,0,0-7.554-6.686,1.419,1.419,0,1,0-1.23,2.558,15.627,15.627,0,0,1,7.038,21.4,1.419,1.419,0,1,0,2.506,1.333,18.473,18.473,0,0,0-.76-18.61Z" transform="translate(-383.924 -220.785)"/></g><g transform="translate(49.253 32.24)"><path class="a" d="M348.515,209h-.1a1.419,1.419,0,1,0,0,2.839h.089a1.419,1.419,0,0,0,.007-2.839Z" transform="translate(-347 -209.001)"/></g><g transform="translate(30.092 41.283)"><path class="a" d="M223.7,296.2a15.627,15.627,0,0,1-7.038-21.4,1.419,1.419,0,0,0-2.506-1.333,18.46,18.46,0,0,0,8.314,25.3,1.419,1.419,0,1,0,1.23-2.559Z" transform="translate(-212.002 -272.711)"/></g><g transform="translate(44.907 66.305)"><path class="a" d="M317.886,449H317.8a1.419,1.419,0,0,0-.013,2.839h.1a1.419,1.419,0,0,0,0-2.839Z" transform="translate(-316.378 -448.999)"/></g><g transform="translate(0 3)"><g transform="translate(0 0)"><path class="a" d="M54.989,27.438a6.515,6.515,0,0,0-.631-1.159h3.7a6.529,6.529,0,1,0,0-13.058H46.687A6.525,6.525,0,0,0,41.3,3H6.529a6.529,6.529,0,1,0,0,13.058H17.9a6.511,6.511,0,0,0,0,7.381h-3.7a6.525,6.525,0,0,0-4.057,11.639,6.517,6.517,0,0,0,0,10.22,6.517,6.517,0,0,0,0,10.22,6.525,6.525,0,0,0,4.057,11.639H30.922A24.124,24.124,0,1,0,54.989,27.438Zm3.065-11.379a3.69,3.69,0,1,1,0,7.381H23.278a3.69,3.69,0,1,1,0-7.381ZM6.529,13.22a3.69,3.69,0,1,1,0-7.381H41.3a3.69,3.69,0,0,1,0,7.381Zm7.665,13.058H48.969a3.688,3.688,0,0,1,1.61.371c-.671-.056-1.35-.087-2.036-.087a24.055,24.055,0,0,0-17.075,7.1H14.194a3.69,3.69,0,0,1,0-7.381Zm0,10.22H29.043a24.061,24.061,0,0,0-3.648,7.381h-11.2a3.69,3.69,0,1,1,0-7.381Zm0,10.22H24.743a24.149,24.149,0,0,0-.088,7.381H14.194a3.69,3.69,0,0,1,0-7.381Zm0,17.6a3.69,3.69,0,1,1,0-7.381H25.235a24.035,24.035,0,0,0,3.406,7.381Zm34.35,7.665A21.291,21.291,0,1,1,69.835,50.692,21.315,21.315,0,0,1,48.544,71.983Z" transform="translate(0 -3)"/></g></g></g></svg>