<svg xmlns="http://www.w3.org/2000/svg" width="98.899" height="84.604" viewBox="0 0 98.899 84.604"><defs><style>.a{fill:#2a91ff;}</style></defs><g transform="translate(0 -37)"><g transform="translate(0 37)"><path class="a" d="M94.746,109.049h-2.9a5.278,5.278,0,0,0,.584-2.416l0-50.221A5.318,5.318,0,0,0,87.114,51.1H79.293V49.33a2.533,2.533,0,0,0-2.53-2.53h-2.4V39.53a2.531,2.531,0,0,0-3.358-2.392l-4.563,1.578a1.449,1.449,0,0,0,.947,2.738l4.077-1.41V74.887L50.9,82V47.158l10.65-3.683a1.449,1.449,0,1,0-.947-2.738L49.449,44.593,27.892,37.139a2.531,2.531,0,0,0-3.358,2.392V46.8h-2.4a2.533,2.533,0,0,0-2.53,2.53V51.1H11.783a5.318,5.318,0,0,0-5.312,5.312v5.152a1.449,1.449,0,0,0,2.9,0V56.414A2.417,2.417,0,0,1,11.783,54h7.823v2.9H13.714a1.449,1.449,0,0,0-1.449,1.449l0,46.358a1.449,1.449,0,0,0,1.449,1.449l71.468,0a1.449,1.449,0,0,0,1.449-1.449l0-46.358a1.449,1.449,0,0,0-1.449-1.449H79.293V54h7.821a2.417,2.417,0,0,1,2.415,2.415l0,50.221a2.417,2.417,0,0,1-2.415,2.415l-75.331,0a2.417,2.417,0,0,1-2.415-2.415V67.764a1.449,1.449,0,0,0-2.9,0v38.87a5.275,5.275,0,0,0,.583,2.415h-2.9A4.158,4.158,0,0,0,0,113.2v4.25A4.158,4.158,0,0,0,4.153,121.6h57.6a1.449,1.449,0,0,0,0-2.9H4.153A1.257,1.257,0,0,1,2.9,117.452V113.2a1.257,1.257,0,0,1,1.256-1.256H39.695v1.018a3.622,3.622,0,0,0,3.618,3.618H55.586a3.622,3.622,0,0,0,3.618-3.618v-1.018H94.746A1.257,1.257,0,0,1,96,113.2v4.25a1.257,1.257,0,0,1-1.256,1.256H68.075a1.449,1.449,0,1,0,0,2.9H94.746a4.158,4.158,0,0,0,4.153-4.153V113.2a4.158,4.158,0,0,0-4.153-4.153ZM72.661,77.54a2.532,2.532,0,0,0,1.7-2.392V49.7H76.4V82.585H58.071ZM27.431,40.045,48,47.158V82L27.431,74.887ZM22.5,49.7h2.031V75.148a2.533,2.533,0,0,0,1.7,2.392l14.59,5.045H22.5Zm61.23,10.095,0,43.46-68.571,0,0-43.46h4.443V82.952a2.533,2.533,0,0,0,2.53,2.53H76.762a2.533,2.533,0,0,0,2.53-2.53V59.792ZM56.307,112.964a.722.722,0,0,1-.72.721H43.313a.722.722,0,0,1-.721-.721v-1.018H56.307Z" transform="translate(0 -37)"/><path class="a" d="M189.495,309.387H151.438a1.449,1.449,0,1,0,0,2.9h38.057a1.449,1.449,0,0,0,0-2.9Z" transform="translate(-121.017 -256.772)"/><path class="a" d="M176.119,341.2H151.438a1.449,1.449,0,1,0,0,2.9h24.681a1.449,1.449,0,1,0,0-2.9Z" transform="translate(-121.017 -282.442)"/></g></g></svg>