<svg xmlns="http://www.w3.org/2000/svg" width="113.22" height="105.938" viewBox="0 0 113.22 105.938"><defs><style>.a{fill:#2a91ff;}</style></defs><path class="a" d="M221.023,109.966a1.675,1.675,0,0,0,2.525-.287L234.587,93.02a1.659,1.659,0,1,0-2.765-1.833L221.874,106.2l-5.527-5.248a1.659,1.659,0,1,0-2.284,2.406Zm0,0" transform="translate(-166.324 -70.555)"/><path class="a" d="M144.148,65.207a2.457,2.457,0,0,0,1.017.222h.014a2.427,2.427,0,0,0,1.029-.235c25.22-11.994,29.494-37.872,30.2-45.517a3.965,3.965,0,0,0-2.445-4.045,14.494,14.494,0,0,1-8.907-12.164A3.275,3.275,0,0,0,161.807.5h-.02L127.81.7a3.249,3.249,0,0,0-3.236,3.028A14.5,14.5,0,0,1,115.8,15.979a3.951,3.951,0,0,0-2.384,4.067C114.212,27.683,118.789,53.51,144.148,65.207ZM117.1,19.029A17.8,17.8,0,0,0,127.878,4.016l33.879-.2A17.8,17.8,0,0,0,172.692,18.7a.667.667,0,0,1,.415.676c-.665,7.165-4.645,31.325-27.948,42.647-23.438-11.046-27.7-35.159-28.447-42.317A.653.653,0,0,1,117.1,19.029Zm0,0" transform="translate(-88.317 -0.5)"/><path class="a" d="M144.5,50.262a1.749,1.749,0,0,0,2.036,1.165,1.661,1.661,0,0,0,1.165-2.035c-.422-1.557-.777-3.135-1.056-4.7a23.325,23.325,0,0,0,9.49-12.436l23.952-.141a23.323,23.323,0,0,0,9.635,12.324c-.26,1.568-.6,3.151-1,4.714a1.659,1.659,0,1,0,3.212.832c.475-1.835.862-3.7,1.149-5.535a2.536,2.536,0,0,0-1.2-2.572,20.016,20.016,0,0,1-8.8-11.283,2.565,2.565,0,0,0-2.438-1.8h-.016l-25.076.147a2.565,2.565,0,0,0-2.432,1.829,20.017,20.017,0,0,1-8.669,11.386,2.535,2.535,0,0,0-1.165,2.586C143.593,46.578,144,48.435,144.5,50.262Zm0,0" transform="translate(-111.571 -22.539)"/><path class="a" d="M201.4,147.66a1.657,1.657,0,0,0-2.166.9,41.776,41.776,0,0,1-18.039,21,41.791,41.791,0,0,1-18.3-20.821,1.659,1.659,0,0,0-3.053,1.3,44.991,44.991,0,0,0,20.139,22.64,2.539,2.539,0,0,0,2.46-.014,44.977,44.977,0,0,0,19.857-22.84A1.657,1.657,0,0,0,201.4,147.66Zm0,0" transform="translate(-124.391 -115.02)"/><path class="a" d="M27.454,384.273a5.868,5.868,0,1,0,5.869,5.868A5.875,5.875,0,0,0,27.454,384.273Zm0,8.419a2.551,2.551,0,1,1,2.552-2.551A2.553,2.553,0,0,1,27.454,392.692Zm0,0" transform="translate(-16.813 -299.408)"/><path class="a" d="M112.031,253.245a6.909,6.909,0,0,0-9.541-1.845L80.809,265.911l-4.628-.26-.118-1.185a10.066,10.066,0,0,0-8.627-8.992l-.087-.01-23.362-2.047c-.79-.124-3.32-.85-10.272-4.837a25.8,25.8,0,0,0-11.82-3.4v-4.339a3.952,3.952,0,0,0-3.948-3.948h-14A3.953,3.953,0,0,0,0,240.839v42.733a3.953,3.953,0,0,0,3.948,3.948h14a3.953,3.953,0,0,0,3.948-3.948v-1.177l20.422,7.734a11.421,11.421,0,0,0,4.753.35L81,285.587l.025,0a16.684,16.684,0,0,0,7.907-3.542l.06-.052,21.916-19.711A6.909,6.909,0,0,0,112.031,253.245ZM108.7,259.8l-21.892,19.69a13.365,13.365,0,0,1-6.292,2.811l-33.908,4.888-.029,0-.016,0a7.448,7.448,0,0,1-3.141-.2l-21.527-8.152V259.908a1.659,1.659,0,1,0-3.317,0v23.665a.632.632,0,0,1-.631.631h-14a.632.632,0,0,1-.631-.631V240.839a.632.632,0,0,1,.631-.631h14a.632.632,0,0,1,.631.631v11.577a1.659,1.659,0,1,0,3.317,0V248.5a22.465,22.465,0,0,1,10.17,2.959c8.385,4.809,10.727,5.141,11.5,5.249l.087.01,23.365,2.047a6.758,6.758,0,0,1,5.75,6.03l.088.884-31.281,1.931-.062-.005a3.78,3.78,0,0,1-2.58-1.35,1.658,1.658,0,1,0-2.547,2.124,7.182,7.182,0,0,0,4.832,2.53c1.024.107,33.463-2.02,33.463-2.02l6.5.365a1.654,1.654,0,0,0,1.015-.278l22.146-14.821a3.576,3.576,0,0,1,4.36,5.649Zm0,0" transform="translate(0 -184.617)"/></svg>