<svg xmlns="http://www.w3.org/2000/svg" width="77.236" height="77.236" viewBox="0 0 77.236 77.236"><defs><style>.a{fill:#2a91ff;}</style></defs><g transform="translate(0)"><path class="a" d="M77.145,5.766A6,6,0,0,0,71.47.091c-6.191-.338-18.3-.009-29.888,5.982A58.677,58.677,0,0,0,24.447,20.281c-.061.074-.121.148-.182.221l-11.311.874A5.971,5.971,0,0,0,8.4,24.053L.688,35.725A4.136,4.136,0,0,0,3.5,42.093l9.529,1.476c-.034.185-.067.37-.1.556a6,6,0,0,0,1.682,5.219L27.892,62.618a6.015,6.015,0,0,0,4.245,1.763,5.915,5.915,0,0,0,.974-.081c.185-.031.37-.065.556-.1l1.476,9.53a4.132,4.132,0,0,0,6.368,2.817l11.672-7.717a5.97,5.97,0,0,0,2.677-4.55l.874-11.311.222-.182A58.671,58.671,0,0,0,71.163,35.654c5.992-11.584,6.32-23.7,5.982-29.888ZM50.687,65.056,39.522,72.437,38.083,63.15a50.69,50.69,0,0,0,13.833-6.586l-.569,7.368a1.474,1.474,0,0,1-.661,1.123ZM31.092,59.418,17.818,46.144a1.467,1.467,0,0,1-.418-1.273,38.926,38.926,0,0,1,1.767-6.722L39.083,58.065a39.091,39.091,0,0,1-6.718,1.771,1.467,1.467,0,0,1-1.273-.418ZM13.3,25.888l7.368-.569a50.687,50.687,0,0,0-6.586,13.833L4.8,37.714,12.18,26.549A1.474,1.474,0,0,1,13.3,25.888ZM54.056,49.313a51.88,51.88,0,0,1-10.475,6.85l-22.51-22.51A52.778,52.778,0,0,1,27.922,23.18,54,54,0,0,1,43.661,10.092c10.631-5.5,21.832-5.8,27.562-5.483a1.484,1.484,0,0,1,1.4,1.4c.312,5.731.016,16.931-5.483,27.562A54,54,0,0,1,54.056,49.313Z" transform="translate(0 0)"/><path class="a" d="M287.036,108.935a11.3,11.3,0,1,0-8-3.308A11.281,11.281,0,0,0,287.036,108.935Zm-4.8-16.108a6.788,6.788,0,1,1-1.988,4.8A6.766,6.766,0,0,1,282.236,92.827Z" transform="translate(-234.13 -73.297)"/><path class="a" d="M2.564,354.878a2.255,2.255,0,0,0,1.6-.663l7.388-7.388a2.263,2.263,0,0,0-3.2-3.2L.964,351.015a2.263,2.263,0,0,0,1.6,3.863Z" transform="translate(-0.256 -291.228)"/><path class="a" d="M18.066,388.508a2.263,2.263,0,0,0-3.2,0l-14.2,14.2a2.263,2.263,0,1,0,3.2,3.2l14.2-14.2A2.263,2.263,0,0,0,18.066,388.508Z" transform="translate(-0.001 -329.339)"/><path class="a" d="M98.113,433.389l-7.388,7.388a2.263,2.263,0,1,0,3.2,3.2l7.388-7.388a2.263,2.263,0,0,0-3.2-3.2Z" transform="translate(-76.477 -367.449)"/></g></svg>