<svg xmlns="http://www.w3.org/2000/svg" width="92.183" height="90.787" viewBox="0 0 92.183 90.787"><defs><style>.a{fill:#2a91ff;}</style></defs><g transform="translate(-0.001 -0.5)"><path class="a" d="M90.006,226.192a8.35,8.35,0,0,0-5.15-2.158,7.372,7.372,0,0,0-5.664,2.156l-10.25,10.142a6.8,6.8,0,0,0-.693-.99,6.645,6.645,0,0,0-5.192-2.322H48.708a29.43,29.43,0,0,1-7.845-1.042,19.3,19.3,0,0,0-18.005,3.81,26.188,26.188,0,0,0-4.689,5.033l-2.573-2.5a1.829,1.829,0,0,0-1.269-.515h-.012a1.833,1.833,0,0,0-1.3.558L.508,251.352a1.815,1.815,0,0,0,.056,2.571l21.153,20.142a1.813,1.813,0,0,0,2.549-.047l12.39-12.711a1.823,1.823,0,0,0-.036-2.58l-1.079-1.047,2.469-.278a39.24,39.24,0,0,1,4.517-.262H64.359a16.39,16.39,0,0,0,8.956-2.306l.059-.039a12.085,12.085,0,0,0,2.313-2.1L90.4,235.387C92.917,232.426,92.759,228.73,90.006,226.192ZM22.92,270.2,4.386,252.555l9.985-10.366L32.8,260.07Zm64.715-37.165L72.924,250.346a8.477,8.477,0,0,1-1.592,1.451,12.9,12.9,0,0,1-6.973,1.717H42.527a42.821,42.821,0,0,0-4.928.286l-5.428.609L20.806,243.38a22.616,22.616,0,0,1,4.346-4.781A15.61,15.61,0,0,1,39.9,235.474a33.051,33.051,0,0,0,8.812,1.174H63.056a3.276,3.276,0,0,1,3.265,3.551,3.927,3.927,0,0,1-.849,2.516A3.082,3.082,0,0,1,63,243.753H50.509a1.813,1.813,0,0,0,0,3.627H63a6.725,6.725,0,0,0,5.237-2.317,7.448,7.448,0,0,0,1.708-4.621l11.8-11.681a4.245,4.245,0,0,1,5.8.1C88.31,229.561,89.335,231.039,87.635,233.038Zm0,0" transform="translate(0 -183.279)"/><path class="a" d="M232.817,334.621a1.813,1.813,0,1,0-3.531.828l.017.074a1.814,1.814,0,0,0,1.764,1.4,1.837,1.837,0,0,0,.416-.048,1.813,1.813,0,0,0,1.352-2.18Zm0,0" transform="translate(-187.964 -272.816)"/><path class="a" d="M48.082,38.76h17.67a4.364,4.364,0,0,0,2.577-.84,4.364,4.364,0,0,0,2.577.84h17.67a4.364,4.364,0,0,0,2.577-.84,4.364,4.364,0,0,0,2.577.84H111.4a4.4,4.4,0,0,0,4.39-4.391v-8.24a9.508,9.508,0,0,0-5.171-8.5,10.46,10.46,0,1,0-16.107,0,9.5,9.5,0,0,0-3.358,2.879,9.481,9.481,0,0,0-3.359-2.879,10.46,10.46,0,1,0-16.106,0,9.481,9.481,0,0,0-3.359,2.879,9.49,9.49,0,0,0-3.359-2.88,10.46,10.46,0,1,0-16.106,0,9.51,9.51,0,0,0-5.172,8.5v8.239A4.4,4.4,0,0,0,48.082,38.76ZM102.566,4.127a6.833,6.833,0,1,1-6.833,6.833A6.841,6.841,0,0,1,102.566,4.127ZM97.854,20.3a10.423,10.423,0,0,0,9.421,0,5.892,5.892,0,0,1,4.888,5.834v8.24a.764.764,0,0,1-.764.764H93.73a.764.764,0,0,1-.763-.764v-8.24A5.892,5.892,0,0,1,97.854,20.3ZM79.741,4.127a6.833,6.833,0,1,1-6.833,6.833A6.841,6.841,0,0,1,79.741,4.127ZM75.031,20.3a10.423,10.423,0,0,0,9.421,0,5.893,5.893,0,0,1,4.888,5.834v8.24a.764.764,0,0,1-.764.764H70.906a.764.764,0,0,1-.764-.764v-8.24A5.893,5.893,0,0,1,75.031,20.3ZM56.917,4.127a6.833,6.833,0,1,1-6.833,6.833A6.841,6.841,0,0,1,56.917,4.127Zm-9.6,22A5.893,5.893,0,0,1,52.206,20.3a10.423,10.423,0,0,0,9.421,0,5.892,5.892,0,0,1,4.888,5.834v8.24a.764.764,0,0,1-.764.764H48.082a.764.764,0,0,1-.764-.764Zm0,0" transform="translate(-35.824)"/></g></svg>