<svg xmlns="http://www.w3.org/2000/svg" width="89.473" height="89.473" viewBox="0 0 89.473 89.473"><defs><style>.a{fill:#2a91ff;}</style></defs><g transform="translate(0)"><g transform="translate(0 0)"><path class="a" d="M89.473,23.612V20.471a10.423,10.423,0,0,0-4.334-8.482,6.7,6.7,0,0,0,.59-2.751v-2.5a6.741,6.741,0,0,0-13.481,0v2.5c0,.077,0,.154.006.231A44.738,44.738,0,0,0,5.53,66.291a6.714,6.714,0,0,0-1.786,4.564v2.5A6.7,6.7,0,0,0,4.334,76.1,10.421,10.421,0,0,0,0,84.585v3.141a1.747,1.747,0,0,0,1.748,1.748H19.223a1.747,1.747,0,0,0,1.748-1.748V84.585a10.565,10.565,0,0,0-.205-2.069,44.746,44.746,0,0,0,64.3-57.157h2.661a1.747,1.747,0,0,0,1.748-1.748ZM75.743,6.741a3.245,3.245,0,1,1,6.491,0v2.5a3.245,3.245,0,0,1-6.491,0Zm10.2,39.744A41.081,41.081,0,0,1,75.232,72.473,44.593,44.593,0,0,0,70.2,68.417a61.016,61.016,0,0,0,4.506-21.933ZM14.24,17c.992.924,2.03,1.805,3.1,2.636a6.752,6.752,0,0,0-.116,1.238v2.5a6.7,6.7,0,0,0,.589,2.751,10.421,10.421,0,0,0-4.334,8.483v3.141A1.746,1.746,0,0,0,14.95,39.47c-.092,1.168-.154,2.344-.184,3.519H3.535A41.083,41.083,0,0,1,14.24,17Zm12.433-2.3C31.144,8.227,36.935,4.313,42.989,3.678v21.8a41.019,41.019,0,0,1-12.283-2.423V20.875A6.75,6.75,0,0,0,26.673,14.7ZM23.966,17.63a3.249,3.249,0,0,1,3.245,3.245v2.5a3.245,3.245,0,0,1-6.491,0v-2.5A3.249,3.249,0,0,1,23.966,17.63ZM20.032,28.84a6.718,6.718,0,0,0,7.87,0,6.952,6.952,0,0,1,3.054,5.767V36H16.976V34.606A7.057,7.057,0,0,1,20.032,28.84ZM18.455,39.494H32.7a1.747,1.747,0,0,0,1.748-1.748V34.606a10.418,10.418,0,0,0-3.436-7.756,44.473,44.473,0,0,0,11.974,2.122V42.989H18.262C18.294,41.821,18.359,40.653,18.455,39.494ZM46.484,3.674c6.288.641,12.187,4.733,16.766,11.688a41.751,41.751,0,0,1,2.51,4.384,41.612,41.612,0,0,1-19.276,5.729ZM22.8,14.239a6.738,6.738,0,0,0-3.885,2.185q-1.137-.914-2.208-1.905A41.35,41.35,0,0,1,29.117,6.57,36.1,36.1,0,0,0,22.8,14.239ZM14.769,46.484c.028,1.075.08,2.155.159,3.23a1.748,1.748,0,0,0,1.741,1.618q.065,0,.131,0a1.747,1.747,0,0,0,1.613-1.872c-.073-.989-.121-1.982-.149-2.971H42.989V60.5a44.568,44.568,0,0,0-20.715,6.007q-.421-1.042-.805-2.129a1.748,1.748,0,0,0-3.3,1.162q.52,1.473,1.105,2.87-1.077.747-2.112,1.561a6.74,6.74,0,0,0-8.678-5.556A41.2,41.2,0,0,1,3.533,46.484ZM67.2,66.516a44.886,44.886,0,0,0-5.348-2.646q-.986-.408-1.984-.767h8.574q-.566,1.748-1.241,3.413ZM42.989,85.8c-7.631-.786-14.646-6.691-19.281-16.083A41.086,41.086,0,0,1,42.989,64Zm3.5,0V64a40.914,40.914,0,0,1,19.285,5.71,41.785,41.785,0,0,1-2.519,4.4C58.671,81.066,52.772,85.158,46.484,85.8Zm20.97-26.191H53.474V58.215a7.058,7.058,0,0,1,3.056-5.766,6.718,6.718,0,0,0,7.87,0,6.953,6.953,0,0,1,3.054,5.767ZM63.71,46.981a3.245,3.245,0,0,1-6.491,0v-2.5a3.245,3.245,0,0,1,6.491,0Zm-9.4,2.751a10.421,10.421,0,0,0-4.334,8.483v2.557q-1.737-.2-3.5-.271V46.484h7.24v.5a6.7,6.7,0,0,0,.59,2.751ZM7.24,73.351v-2.5a3.245,3.245,0,1,1,6.491,0v2.5a3.245,3.245,0,1,1-6.491,0Zm9.871,1.233a41.5,41.5,0,0,1,3.655-2.942,38.449,38.449,0,0,0,8.38,11.287A41.145,41.145,0,0,1,16.96,75.218q.09-.311.15-.634Zm49.059,1.45a44.914,44.914,0,0,0,2.542-4.4,41.632,41.632,0,0,1,4.058,3.32A41.346,41.346,0,0,1,60.388,82.89,35.979,35.979,0,0,0,66.169,76.034Zm4.25-21.121a10.427,10.427,0,0,0-3.8-5.18,6.7,6.7,0,0,0,.59-2.751v-.5H71.21A62.478,62.478,0,0,1,70.419,54.912ZM67.036,42.989a6.739,6.739,0,0,0-13.142,0H46.484V28.973A45.133,45.133,0,0,0,67.2,22.95,57.7,57.7,0,0,1,71.21,42.989ZM68.87,17.712l-.162.118a44.943,44.943,0,0,0-2.539-4.391,35.973,35.973,0,0,0-5.8-6.873,41.148,41.148,0,0,1,11.008,6.692,10.394,10.394,0,0,0-2.508,4.453ZM17.475,85.978H3.5V84.585a7.058,7.058,0,0,1,3.056-5.766,6.718,6.718,0,0,0,7.87,0,6.953,6.953,0,0,1,3.054,5.767ZM85.94,42.989H74.706a62.917,62.917,0,0,0-2.917-17.63h9.359A41.252,41.252,0,0,1,85.94,42.989Zm.038-21.125H72V20.471a7.058,7.058,0,0,1,3.056-5.766,6.718,6.718,0,0,0,7.87,0,6.952,6.952,0,0,1,3.054,5.767Z" transform="translate(0 0)"/><path class="a" d="M93.245,321.825a1.748,1.748,0,1,0,0-3.5h0a1.748,1.748,0,0,0,0,3.5Z" transform="translate(-75.508 -262.701)"/></g></g></svg>